<svg width="306" height="42" fill="none" xmlns="http://www.w3.org/2000/svg"><path d="M63.25 33.934v-2.53c1.445 2.422 4.192 2.964 5.747 2.964 4.627 0 8.567-3.94 8.567-9.724 0-5.53-3.542-9.76-8.748-9.76-1.771 0-3.796.614-5.06 2.53V8.088h-6.29v25.846h5.783Zm.36-9.362c0-2.603 1.664-4.194 3.869-4.194 2.06 0 3.76 1.591 3.76 4.194 0 2.602-1.7 4.302-3.76 4.302-2.205 0-3.868-1.663-3.868-4.302ZM93.381 15.028c-.289-.108-.686-.144-1.156-.144-2.459 0-4.266 1.337-5.242 3.615v-3.181H80.73v18.616h6.29v-6.832c0-3.904 1.771-6.326 4.953-6.326.65 0 1.12.072 1.41.217v-5.965ZM95.803 33.934h6.29V15.318h-6.29v18.616Zm-.253-23.822c0 1.88 1.446 3.254 3.362 3.254 1.916 0 3.398-1.374 3.398-3.254s-1.482-3.253-3.398-3.253c-1.916 0-3.362 1.373-3.362 3.253ZM110.726 24.716l-6.399 9.218h6.977l3.037-4.916 3.036 4.916h6.977l-6.399-9.218 6.543-9.398h-7.157l-3 5.169-3.001-5.17h-7.157l6.543 9.4Z" fill="#170F49"/><path d="M131.745 18.969h2.386v7.446c0 4.338 2.458 6.724 6.507 6.724 1.843 0 3.253-.398 4.229-.867v-5.314c-.759.542-1.663.686-2.422.686-1.157 0-2.024-.686-2.024-2.277v-6.398h3.94v-4.88h-3.94V9.063h-6.109v5.024h-2.567v4.88ZM164.204 24.897c.181-.578.362-1.699.362-2.675 0-5.097-3.615-8.567-8.929-8.567-5.495 0-9.688 4.265-9.688 9.76s4.085 9.724 10.447 9.724c3.145 0 5.603-.795 8.061-3l-3.181-3.977c-.903.868-2.386 1.735-4.41 1.735-2.133 0-4.157-.903-4.446-3h11.784Zm-8.712-6.254c1.627 0 2.892 1.012 3.001 2.603v.036h-6.182c.109-1.699 1.555-2.639 3.181-2.639ZM167.657 14.088v18.617h6.29V22.91c0-2.314 1.193-3.76 2.965-3.76 1.879 0 2.892 1.157 2.892 3.326v10.23h6.289V22.91c0-2.314 1.266-3.76 2.965-3.76 1.879 0 2.892 1.157 2.892 3.326v10.23h6.29v-11.35c0-4.808-2.675-7.7-7.194-7.7-3.145 0-4.844 1.41-6.109 3.036-1.266-1.988-3.29-3.036-6.037-3.036-2.205 0-3.977.759-5.242 2.639v-2.206h-6.001ZM202.5 39.935h6.29v-9.037c1.193 1.735 3.29 2.241 5.061 2.241 5.206 0 8.748-4.23 8.748-9.76 0-5.784-4.049-9.724-8.676-9.724-1.518 0-4.084.542-5.639 2.964v-2.53H202.5v25.846Zm6.146-16.484c0-2.639 1.663-4.302 3.868-4.302 2.06 0 3.759 1.7 3.759 4.302 0 2.603-1.699 4.193-3.759 4.193-2.205 0-3.868-1.59-3.868-4.193ZM225.547 27.138c0 3.904 2.242 6.001 6.146 6.001 1.265 0 2.241-.217 2.928-.542v-5.061a3.39 3.39 0 0 1-1.229.217c-1.446 0-1.555-.904-1.555-1.771V6.858h-6.29v20.28ZM242.397 33.14c2.458 0 4.085-1.085 4.808-2.495v2.06h5.82v-11.64c0-4.627-3.181-7.41-8.567-7.41-3.651 0-6.652 1.59-8.242 3.615l3.289 3.94c.976-1.12 2.495-2.205 4.627-2.205 1.555 0 2.892.542 2.892 2.096v.037l-4.807.94c-3.905.83-6.074 2.71-6.074 5.458 0 3.29 2.639 5.603 6.254 5.603Zm4.627-8.207v.29c0 2.06-1.156 3.397-3.145 3.397-1.12 0-1.735-.578-1.735-1.482 0-.903.723-1.373 1.844-1.626l3.036-.579ZM255.266 18.969h2.386v7.446c0 4.338 2.458 6.724 6.507 6.724 1.843 0 3.253-.398 4.229-.867v-5.314c-.759.542-1.663.686-2.422.686-1.157 0-2.024-.686-2.024-2.277v-6.398h3.94v-4.88h-3.94V9.063h-6.109v5.024h-2.567v4.88ZM287.725 24.897c.181-.578.362-1.699.362-2.675 0-5.097-3.615-8.567-8.929-8.567-5.495 0-9.688 4.265-9.688 9.76s4.085 9.724 10.447 9.724c3.145 0 5.603-.795 8.061-3l-3.181-3.977c-.903.868-2.386 1.735-4.41 1.735-2.133 0-4.157-.903-4.446-3h11.784Zm-8.712-6.254c1.627 0 2.892 1.012 3.001 2.603v.036h-6.182c.109-1.699 1.555-2.639 3.181-2.639ZM297.613 33.14c4.627 0 7.736-2.567 7.736-5.893 0-3.687-2.856-4.663-5.784-5.82-2.639-1.12-3.76-1.302-3.76-1.988 0-.687.832-1.085 1.808-1.085 1.735 0 2.711.832 3.326 1.88l3.904-2.82c-1.157-2.205-3.868-3.76-7.049-3.76-4.194 0-7.7 2.025-7.7 5.748 0 3 2.06 4.483 5.711 5.784 2.567.904 3.832 1.23 3.832 2.205 0 .687-.687 1.049-1.952 1.049-1.88 0-3.325-1.157-4.193-2.64l-4.013 3.073c1.555 2.748 4.664 4.266 8.134 4.266Z" fill="#4A3AFF"/><path fill-rule="evenodd" clip-rule="evenodd" d="M35.442 12.548a5.87 5.87 0 1 0 0-11.739 5.87 5.87 0 0 0 0 11.74Z" fill="#8055FA"/><path fill-rule="evenodd" clip-rule="evenodd" d="M35.442 26.631a5.87 5.87 0 1 0 0-11.738 5.87 5.87 0 0 0 0 11.738Z" fill="#7550FB"/><path fill-rule="evenodd" clip-rule="evenodd" d="M35.442 41.24a5.87 5.87 0 1 0 0-11.74 5.87 5.87 0 0 0 0 11.74Z" fill="#6A4AFC"/><path d="M20.835 26.63a5.869 5.869 0 1 0 0-11.737 5.869 5.869 0 0 0 0 11.738Z" fill="#6045FD"/><path d="M20.835 26.63a5.869 5.869 0 1 0 0-11.737 5.869 5.869 0 0 0 0 11.738Z" stroke="#F7F7FB"/><path fill-rule="evenodd" clip-rule="evenodd" d="M20.834 41.24a5.87 5.87 0 1 0 0-11.739 5.87 5.87 0 0 0 0 11.738Z" fill="#553FFE"/><path fill-rule="evenodd" clip-rule="evenodd" d="M6.75 41.24a5.87 5.87 0 1 0 0-11.74 5.87 5.87 0 0 0 0 11.74Z" fill="#4A3AFF"/></svg>